<?xml version="1.0" encoding="UTF-8"?>
<svg id="Calque_1" data-name="Calque 1" xmlns="http://www.w3.org/2000/svg" viewBox="0 0 301.5 94.5">
  <defs>
    <style>
      .cls-1 {
        stroke-width: 0px;
      }
    </style>
  </defs>
  <path class="cls-1" d="m47.28,44.36V3.88h17.67v88.16h-17.25c-.16-1.78-.33-3.56-.5-5.51-13.46,11.98-28.42,6.97-35.42-.24-10.08-10.37-10.66-27.66-1.62-39.05,7.45-9.39,23.75-13.33,37.12-2.89Zm-12.04,33.83c7.26.03,12.25-4.91,12.31-12.16.06-7.11-5.06-12.49-12.01-12.63-7.11-.14-12.45,5.24-12.45,12.55,0,7.39,4.79,12.22,12.15,12.24Z"/>
  <path class="cls-1" d="m132.75,92.13h-17.77v-52.24h17.64c.07,1.59.14,3.05.23,4.92.89-.64,1.58-1.07,2.19-1.6,8.85-7.56,19.65-5.94,28.09-.94,4.52,2.68,7.51,7.05,7.68,12.22.39,12.46.13,24.94.13,37.58h-17.77c-.06-1.19-.16-2.39-.16-3.59-.02-8.88.02-17.76-.02-26.64-.03-5.55-4.32-10.08-9.42-10.1-5.3-.02-10.78,5.15-10.8,10.34-.05,9.87-.02,19.74-.02,30.02Z"/>
  <path class="cls-1" d="m237.88,80.06c-4.21,6.99-10.15,10.88-17.62,12.56-12.47,2.8-23.43.47-32.03-9.63-12.25-14.37-6.09-38.56,15.12-43.92,10.93-2.76,21.29-.84,29.37,7.99,5.41,5.91,6.25,13.18,6.08,21.16h-38.09c-.12,4.64,1.62,7.84,5.45,9.71,4.92,2.4,9.83,2.21,14.55-.61,1.06-.63,1.88-1.74,2.99-2.21,1.04-.44,2.51-.75,3.45-.34,3.52,1.53,6.91,3.37,10.72,5.29Zm-16.89-21.87c-1-5.99-4.97-8.98-10.81-8.4-5.49.55-8.51,3.53-8.34,8.4h19.15Z"/>
  <path class="cls-1" d="m289.34,55.8c-2.59-.67-4.92-1.45-7.31-1.87-8.85-1.55-13.22,4.4-13.44,12.27-.24,8.49-.05,16.99-.05,25.78h-17.43v-52.04h17.34v7.55c8.31-9.53,17.25-12.1,28.07-6.21-2.56,5.18-4.96,10.02-7.19,14.53Z"/>
  <path class="cls-1" d="m81.23,39.76h17.48v52.24h-17.48v-52.24Z"/>
  <path class="cls-1" d="m67.49,22.44c7.65-5.62,14.95-10.99,22.46-16.51,7.49,5.52,14.97,11.02,22.5,16.57-2.4,3.16-4.58,6.02-6.84,9-5.31-3.87-10.41-7.59-15.65-11.41-5.21,3.79-10.39,7.55-15.73,11.43-2.33-3.14-4.49-6.05-6.74-9.09Z"/>
</svg>